PathFileType	4	(X/Y/Z)	C:/Users/opensim2020/Desktop/walking_exp_matlab/subject06_walking18_straight_02.trc																																																																																																																																											
DataRate	CameraRate	NumFrames	NumMarkers	Units	OrigDataRate	OrigDataStartFrame	OrigNumFrames																																																																																																																																							
100	100	4	47	mm	100	2496	326																																																																																																																																							
Frame#	Time	LFHD			RFHD			LBHD			RBHD			C7			T10			CLAV			STRN			RBAK			LSHO			LUPA			LELB			LFRM			LWRA			LWRB			LFIN			RSHO			RUPA			RELB			RFRM			RWRA			RWRB			RFIN			LASI			RASI			LPSI			RPSI			LTHI			LKNE			LTIB			LANK			LHEE			LTOE			RTHI			RKNE			RTIB			RANK			RHEE			RTOE			*39			*40			*41			*42			*43			*44			*45			*46		
		X1	Y1	Z1	X2	Y2	Z2	X3	Y3	Z3	X4	Y4	Z4	X5	Y5	Z5	X6	Y6	Z6	X7	Y7	Z7	X8	Y8	Z8	X9	Y9	Z9	X10	Y10	Z10	X11	Y11	Z11	X12	Y12	Z12	X13	Y13	Z13	X14	Y14	Z14	X15	Y15	Z15	X16	Y16	Z16	X17	Y17	Z17	X18	Y18	Z18	X19	Y19	Z19	X20	Y20	Z20	X21	Y21	Z21	X22	Y22	Z22	X23	Y23	Z23	X24	Y24	Z24	X25	Y25	Z25	X26	Y26	Z26	X27	Y27	Z27	X28	Y28	Z28	X29	Y29	Z29	X30	Y30	Z30	X31	Y31	Z31	X32	Y32	Z32	X33	Y33	Z33	X34	Y34	Z34	X35	Y35	Z35	X36	Y36	Z36	X37	Y37	Z37	X38	Y38	Z38	X39	Y39	Z39	X40	Y40	Z40	X41	Y41	Z41	X42	Y42	Z42	X43	Y43	Z43	X44	Y44	Z44	X45	Y45	Z45	X46	Y46	Z46	X47	Y47	Z47
																																																																																																																																														
245	2.44	200.0611	1671.69495	978.55151	207.39873	1660.55359	1109.84229	69.72327	1610.70056	984.88269	79.19128	1604.88464	1113.85242	76.35155	1456.40857	1040.9353	43.93495	1128.15027	1056.04578	186.23125	1380.35217	1038.23022	224.66632	1203.27844	1032.38379	8.35303	1286.20813	1127.95959	126.15614	1408.79871	877.8606	111.13637	1206.75134	806.87549	100.53426	1095.54285	792.93677	122.11039	948.65875	760.75153	190.69035	834.29883	787.22418	125.04595	829.07227	759.9527	168.05382	749.56036	748.76331	148.44888	1414.07263	1200.30396	131.88951	1214.12256	1291.29199	153.93852	1093.49658	1299.60522	195.58849	980.36438	1306.85376	280.45078	861.55377	1256.45178	235.49725	849.25146	1304.61438	289.18668	784.80902	1296.8866	211.14439	968.07294	931.66095	223.00143	967.26996	1152.12219	54.73116	996.32965	966.966	69.87581	998.5885	1135.73413	191.14706	658.22656	861.47681	240.85486	501.91049	884.6087	185.04343	255.76736	896.2392	173.61841	82.91827	934.10205	143.24004	68.12797	986.83057	311.44568	45.47565	912.08636	150.23882	633.68298	1197.48413	139.74467	508.71143	1171.77893	66.93389	251.93745	1164.23694	30.5165	67.34358	1117.25757	-14.48643	43.35448	1076.29993	181.67419	34.5859	1098.73364	101.372	1704.89429	1043.05444	NaN	NaN	NaN	NaN	NaN	NaN	NaN	NaN	NaN	NaN	NaN	NaN	NaN	NaN	NaN	NaN	NaN	NaN	NaN	NaN	NaN
246	2.45	206.06462	1671.02197	977.87958	213.49164	1659.98938	1109.23877	75.56111	1610.33667	984.44324	85.21286	1604.60083	1113.44336	81.7409	1456.09778	1040.70911	49.2928	1127.74927	1055.90906	191.73161	1379.81189	1037.87695	229.93875	1202.72058	1032.22192	13.67084	1285.92224	1127.92334	131.41039	1408.27856	877.52399	115.23777	1206.38171	806.65033	103.81758	1095.27124	792.73169	124.14127	948.11572	760.70654	191.71445	833.22723	786.57123	126.05254	828.57947	759.42114	168.17201	748.74402	748.22888	154.11597	1413.76257	1199.96655	137.64561	1213.87695	1291.11145	159.89897	1093.29724	1299.55261	201.85095	980.31665	1306.67932	286.89917	861.80438	1255.99841	241.97426	849.23914	1304.12402	296.05643	785.06915	1296.40002	216.56679	967.59528	931.60687	228.02629	966.7713	1152.14209	60.13134	995.84174	966.86267	74.95958	998.05377	1135.67444	195.06265	657.52594	861.26489	246.86131	501.83203	884.59058	199.60269	253.86044	895.72986	195.34395	80.52045	933.26801	165.49304	64.6284	985.90668	334.17966	47.36929	910.56018	154.4133	633.1272	1197.02539	143.42834	508.18503	1171.24414	68.78685	251.81464	1163.79529	30.81405	67.47041	1117.03772	-14.42179	43.58894	1076.1532	181.77385	34.53315	1098.61963	107.49572	1704.49634	1042.49915	NaN	NaN	NaN	NaN	NaN	NaN	NaN	NaN	NaN	NaN	NaN	NaN	NaN	NaN	NaN	NaN	NaN	NaN	NaN	NaN	NaN
247	2.46	212.04645	1670.26514	977.23688	219.52211	1659.31519	1108.57336	81.38018	1609.92603	983.94061	90.58948	1604.34521	1113.38269	87.40851	1455.51099	1040.30457	54.40993	1127.33582	1055.88013	197.17299	1379.18909	1037.49963	235.21803	1202.04529	1032.02844	19.20582	1285.68738	1127.771	136.73541	1407.75037	877.21149	119.33936	1206.02222	806.40906	107.08814	1094.99316	792.49548	126.03967	947.56677	760.1095	192.99435	832.28174	785.85919	127.0753	828.24048	758.99396	168.61644	747.91791	747.7038	159.81621	1413.37317	1199.5498	143.27338	1213.59534	1290.97595	165.71446	1093.06421	1299.45935	208.01703	980.21027	1306.49011	293.20255	861.94653	1255.56787	248.53117	849.24725	1303.83801	302.90573	785.26868	1295.90308	222.0887	967.12219	931.63031	233.02374	966.1795	1152.13892	65.50919	995.34552	966.71777	80.03114	997.45892	1135.55859	199.49522	656.87256	861.15594	252.87433	501.68884	884.60583	213.98466	252.15266	895.26917	216.53775	78.6063	932.18469	186.28238	62.30405	985.05383	356.9097	49.75908	908.96832	158.70505	632.45624	1196.52454	147.1656	507.54645	1170.75903	70.63889	251.65654	1163.4458	31.10073	67.57854	1116.87427	-14.33329	43.79486	1076.0116	181.91507	34.43371	1098.55481	113.69675	1703.92542	1041.89441	NaN	NaN	NaN	NaN	NaN	NaN	NaN	NaN	NaN	NaN	NaN	NaN	NaN	NaN	NaN	NaN	NaN	NaN	NaN	NaN	NaN
248	2.47	217.91643	1669.61597	976.47028	225.58092	1658.61292	1107.87561	87.29635	1609.37439	983.33624	96.53621	1603.94849	1112.81079	93.09399	1454.90955	1039.90259	59.77444	1126.81177	1055.63354	202.65211	1378.51697	1037.03821	240.59549	1201.38989	1031.78699	24.65243	1285.43799	1127.72363	142.03542	1407.15234	876.84741	123.38136	1205.6106	806.11121	110.32022	1094.66211	792.25073	127.95076	947.13788	759.78503	194.65393	831.62097	785.17816	128.2527	827.81921	758.61005	169.2605	747.1615	747.12787	165.4817	1412.96387	1199.11682	148.97041	1213.28882	1290.76025	171.5899	1092.75732	1299.34253	214.16707	980.03473	1306.29102	299.49234	862.05194	1255.12219	255.1662	849.31897	1303.71362	309.60739	785.35773	1295.38245	227.64615	966.63708	931.59125	238.12685	965.52161	1152.14941	71.00988	994.80792	966.5097	85.24874	996.76868	1135.39197	204.29002	656.24817	860.92529	258.90439	501.41226	884.53973	228.24687	250.69505	894.66907	237.35262	77.15429	931.0675	210.58194	57.97162	985.82269	378.73743	52.35598	907.48547	163.11638	631.755	1195.99744	151.0153	506.98398	1170.31274	72.42565	251.4632	1163.2207	31.31804	67.63254	1116.78015	-15.16972	44.67427	1076.0979	182.01483	34.30899	1098.52722	119.71803	1703.4873	1041.27441	NaN	NaN	NaN	NaN	NaN	NaN	NaN	NaN	NaN	NaN	NaN	NaN	NaN	NaN	NaN	NaN	NaN	NaN	NaN	NaN	NaN
